<svg version="1.2" baseProfile="tiny-ps" xmlns="http://www.w3.org/2000/svg" viewBox="0 0 375 310" width="375" height="310">
	<title>LOGO TRANS</title>
	<style>
		tspan { white-space:pre }
		.shp0 { opacity: 0.996;fill: #939598 } 
		.shp1 { opacity: 0.996;fill: #004a8d } 
	</style>
	<g id="Background">
		<path id="Path 0" class="shp0" d="M198.24 4.25C197.68 6.04 192.4 20.1 186.5 35.5C180.61 50.9 175.72 64.01 175.64 64.64C175.56 65.27 182.3 73.37 190.6 82.64C198.91 91.91 217.81 113.02 232.6 129.54C247.4 146.06 280.54 183.07 306.25 211.79C331.96 240.5 353.23 263.77 353.5 263.5C353.77 263.23 353.26 261.54 352.35 259.75C351.44 257.96 335.17 229.95 316.19 197.5C297.22 165.05 277.33 131.07 271.99 122C266.66 112.92 255.86 94.47 247.98 81C240.11 67.53 230.23 50.65 226.02 43.5C221.81 36.35 214.57 23.88 209.94 15.79C205.3 7.69 201 1.05 200.39 1.04C199.77 1.02 198.81 2.46 198.24 4.25ZM164.55 49C162.97 51.48 159.2 57.33 156.18 62C153.17 66.67 117.04 123.26 75.9 187.75C34.77 252.23 1.09 305.44 1.05 306C1.02 306.55 1.67 307 2.5 307C3.33 307 6.14 306.57 8.75 306.03C11.36 305.5 26.55 302.57 42.5 299.51C58.45 296.45 72.32 293.62 73.32 293.22C74.54 292.74 77.27 286.92 81.63 275.5C85.2 266.15 90.32 252.65 93.01 245.5C95.69 238.35 102.68 219.9 108.52 204.5C114.37 189.1 121.55 170.2 124.47 162.5C127.4 154.8 134.3 136.57 139.81 122C145.32 107.42 153.93 84.7 158.95 71.5C163.96 58.3 167.91 46.83 167.74 46C167.54 45.08 166.31 46.23 164.55 49Z" />
		<path id="Path 1" class="shp1" d="M168.93 82.5C168.31 84.15 162.41 99.67 155.83 117C149.24 134.32 138.75 162 132.51 178.5C126.27 195 116.8 219.97 111.47 234C106.14 248.03 99.4 265.8 96.49 273.5C93.16 282.33 91.63 287.6 92.35 287.77C92.98 287.92 138.95 279.24 194.5 268.47C250.05 257.7 300.35 247.9 306.28 246.69C312.2 245.49 316.93 244.17 316.78 243.76C316.62 243.36 289.05 212.35 255.5 174.85C221.95 137.35 192.47 104.4 190 101.62C187.53 98.84 182.85 93.62 179.6 90.03C176.36 86.44 172.89 82.6 171.89 81.5C170.08 79.52 170.06 79.52 168.93 82.5Z" />
		<path id="Path 2" class="shp0" d="M309.5 259.08C301.8 260.64 288.3 263.31 279.5 265.02C270.7 266.72 258.1 269.16 251.5 270.44C244.9 271.72 200.8 280.26 153.5 289.42C106.2 298.58 66.71 306.29 65.75 306.54C64.79 306.79 64.22 307.45 64.5 308C64.83 308.66 117.5 309 219.5 309C304.48 309 374 308.66 374.01 308.25C374.01 307.84 363.66 295.91 351.01 281.75C333.21 261.83 327.49 256.03 325.75 256.12C324.51 256.18 317.2 257.51 309.5 259.08Z" />
	</g>
</svg>